<mxfile host="app.diagrams.net" agent="Mozilla/5.0 (Windows NT 10.0; Win64; x64) AppleWebKit/537.36 (KHTML, like Gecko) Chrome/130.0.0.0 Safari/537.36" version="24.8.3">
  <diagram name="Página-1" id="FqqjROT2A5yNRfxRXfP0">
    <mxGraphModel dx="2164" dy="1013" grid="1" gridSize="10" guides="1" tooltips="1" connect="1" arrows="1" fold="1" page="1" pageScale="1" pageWidth="827" pageHeight="1169" math="0" shadow="0">
      <root>
        <mxCell id="0" />
        <mxCell id="1" parent="0" />
        <mxCell id="tqRGPNtFKxSDK7Un2gsf-77" style="edgeStyle=orthogonalEdgeStyle;rounded=0;orthogonalLoop=1;jettySize=auto;html=1;entryX=0;entryY=0.5;entryDx=0;entryDy=0;" edge="1" parent="1" source="tqRGPNtFKxSDK7Un2gsf-48" target="tqRGPNtFKxSDK7Un2gsf-53">
          <mxGeometry relative="1" as="geometry" />
        </mxCell>
        <mxCell id="tqRGPNtFKxSDK7Un2gsf-48" value="" style="rounded=1;whiteSpace=wrap;html=1;" vertex="1" parent="1">
          <mxGeometry x="450" y="10" width="1150" height="1130" as="geometry" />
        </mxCell>
        <mxCell id="tqRGPNtFKxSDK7Un2gsf-20" style="edgeStyle=orthogonalEdgeStyle;rounded=0;orthogonalLoop=1;jettySize=auto;html=1;" edge="1" parent="1" source="tqRGPNtFKxSDK7Un2gsf-1" target="tqRGPNtFKxSDK7Un2gsf-2">
          <mxGeometry relative="1" as="geometry" />
        </mxCell>
        <mxCell id="tqRGPNtFKxSDK7Un2gsf-1" value="Início" style="ellipse;whiteSpace=wrap;html=1;" vertex="1" parent="1">
          <mxGeometry x="30" y="250" width="120" height="80" as="geometry" />
        </mxCell>
        <mxCell id="tqRGPNtFKxSDK7Un2gsf-21" style="edgeStyle=orthogonalEdgeStyle;rounded=0;orthogonalLoop=1;jettySize=auto;html=1;" edge="1" parent="1" source="tqRGPNtFKxSDK7Un2gsf-2" target="tqRGPNtFKxSDK7Un2gsf-3">
          <mxGeometry relative="1" as="geometry" />
        </mxCell>
        <mxCell id="tqRGPNtFKxSDK7Un2gsf-2" value="Login na Aplicação" style="rounded=0;whiteSpace=wrap;html=1;" vertex="1" parent="1">
          <mxGeometry x="280" y="260" width="120" height="60" as="geometry" />
        </mxCell>
        <mxCell id="tqRGPNtFKxSDK7Un2gsf-7" style="edgeStyle=orthogonalEdgeStyle;rounded=0;orthogonalLoop=1;jettySize=auto;html=1;" edge="1" parent="1" source="tqRGPNtFKxSDK7Un2gsf-3" target="tqRGPNtFKxSDK7Un2gsf-5">
          <mxGeometry relative="1" as="geometry" />
        </mxCell>
        <mxCell id="tqRGPNtFKxSDK7Un2gsf-23" style="edgeStyle=orthogonalEdgeStyle;rounded=0;orthogonalLoop=1;jettySize=auto;html=1;entryX=0;entryY=0.75;entryDx=0;entryDy=0;" edge="1" parent="1" source="tqRGPNtFKxSDK7Un2gsf-3" target="tqRGPNtFKxSDK7Un2gsf-6">
          <mxGeometry relative="1" as="geometry">
            <Array as="points">
              <mxPoint x="540" y="615" />
            </Array>
          </mxGeometry>
        </mxCell>
        <mxCell id="tqRGPNtFKxSDK7Un2gsf-24" style="edgeStyle=orthogonalEdgeStyle;rounded=0;orthogonalLoop=1;jettySize=auto;html=1;entryX=0;entryY=0.5;entryDx=0;entryDy=0;" edge="1" parent="1" source="tqRGPNtFKxSDK7Un2gsf-3" target="tqRGPNtFKxSDK7Un2gsf-4">
          <mxGeometry relative="1" as="geometry">
            <Array as="points">
              <mxPoint x="540" y="90" />
            </Array>
          </mxGeometry>
        </mxCell>
        <mxCell id="tqRGPNtFKxSDK7Un2gsf-57" value="" style="edgeStyle=orthogonalEdgeStyle;rounded=0;orthogonalLoop=1;jettySize=auto;html=1;" edge="1" parent="1" source="tqRGPNtFKxSDK7Un2gsf-3">
          <mxGeometry relative="1" as="geometry">
            <mxPoint x="630" y="840" as="targetPoint" />
            <Array as="points">
              <mxPoint x="520" y="840" />
            </Array>
          </mxGeometry>
        </mxCell>
        <mxCell id="tqRGPNtFKxSDK7Un2gsf-3" value="Menu Principal" style="rhombus;whiteSpace=wrap;html=1;" vertex="1" parent="1">
          <mxGeometry x="500" y="250" width="80" height="80" as="geometry" />
        </mxCell>
        <mxCell id="tqRGPNtFKxSDK7Un2gsf-14" style="edgeStyle=orthogonalEdgeStyle;rounded=0;orthogonalLoop=1;jettySize=auto;html=1;entryX=0;entryY=0.5;entryDx=0;entryDy=0;" edge="1" parent="1" source="tqRGPNtFKxSDK7Un2gsf-4" target="tqRGPNtFKxSDK7Un2gsf-10">
          <mxGeometry relative="1" as="geometry" />
        </mxCell>
        <mxCell id="tqRGPNtFKxSDK7Un2gsf-4" value="Produtos" style="rounded=0;whiteSpace=wrap;html=1;" vertex="1" parent="1">
          <mxGeometry x="640" y="60" width="120" height="60" as="geometry" />
        </mxCell>
        <mxCell id="tqRGPNtFKxSDK7Un2gsf-13" style="edgeStyle=orthogonalEdgeStyle;rounded=0;orthogonalLoop=1;jettySize=auto;html=1;entryX=0;entryY=0.5;entryDx=0;entryDy=0;" edge="1" parent="1" source="tqRGPNtFKxSDK7Un2gsf-5" target="tqRGPNtFKxSDK7Un2gsf-11">
          <mxGeometry relative="1" as="geometry" />
        </mxCell>
        <mxCell id="tqRGPNtFKxSDK7Un2gsf-5" value="Gestão de Pagamentos" style="rounded=0;whiteSpace=wrap;html=1;" vertex="1" parent="1">
          <mxGeometry x="620" y="320" width="120" height="60" as="geometry" />
        </mxCell>
        <mxCell id="tqRGPNtFKxSDK7Un2gsf-15" style="edgeStyle=orthogonalEdgeStyle;rounded=0;orthogonalLoop=1;jettySize=auto;html=1;entryX=0;entryY=0.5;entryDx=0;entryDy=0;" edge="1" parent="1" source="tqRGPNtFKxSDK7Un2gsf-6" target="tqRGPNtFKxSDK7Un2gsf-12">
          <mxGeometry relative="1" as="geometry" />
        </mxCell>
        <mxCell id="tqRGPNtFKxSDK7Un2gsf-6" value="Gestão de Encomendas" style="rounded=0;whiteSpace=wrap;html=1;" vertex="1" parent="1">
          <mxGeometry x="630" y="570" width="120" height="60" as="geometry" />
        </mxCell>
        <mxCell id="tqRGPNtFKxSDK7Un2gsf-31" style="edgeStyle=orthogonalEdgeStyle;rounded=0;orthogonalLoop=1;jettySize=auto;html=1;entryX=0;entryY=0.5;entryDx=0;entryDy=0;" edge="1" parent="1" source="tqRGPNtFKxSDK7Un2gsf-10" target="tqRGPNtFKxSDK7Un2gsf-16">
          <mxGeometry relative="1" as="geometry" />
        </mxCell>
        <mxCell id="tqRGPNtFKxSDK7Un2gsf-32" style="edgeStyle=orthogonalEdgeStyle;rounded=0;orthogonalLoop=1;jettySize=auto;html=1;entryX=0;entryY=0.75;entryDx=0;entryDy=0;" edge="1" parent="1" source="tqRGPNtFKxSDK7Un2gsf-10" target="tqRGPNtFKxSDK7Un2gsf-17">
          <mxGeometry relative="1" as="geometry">
            <Array as="points">
              <mxPoint x="960" y="185" />
            </Array>
          </mxGeometry>
        </mxCell>
        <mxCell id="tqRGPNtFKxSDK7Un2gsf-10" value="Página de Produtos" style="rhombus;whiteSpace=wrap;html=1;" vertex="1" parent="1">
          <mxGeometry x="920" y="50" width="80" height="80" as="geometry" />
        </mxCell>
        <mxCell id="tqRGPNtFKxSDK7Un2gsf-33" style="edgeStyle=orthogonalEdgeStyle;rounded=0;orthogonalLoop=1;jettySize=auto;html=1;" edge="1" parent="1" source="tqRGPNtFKxSDK7Un2gsf-11" target="tqRGPNtFKxSDK7Un2gsf-18">
          <mxGeometry relative="1" as="geometry">
            <Array as="points">
              <mxPoint x="940" y="280" />
            </Array>
          </mxGeometry>
        </mxCell>
        <mxCell id="tqRGPNtFKxSDK7Un2gsf-34" style="edgeStyle=orthogonalEdgeStyle;rounded=0;orthogonalLoop=1;jettySize=auto;html=1;entryX=0;entryY=0.5;entryDx=0;entryDy=0;" edge="1" parent="1" source="tqRGPNtFKxSDK7Un2gsf-11" target="tqRGPNtFKxSDK7Un2gsf-27">
          <mxGeometry relative="1" as="geometry">
            <Array as="points">
              <mxPoint x="940" y="420" />
            </Array>
          </mxGeometry>
        </mxCell>
        <mxCell id="tqRGPNtFKxSDK7Un2gsf-11" value="Página de Pagamentos" style="rhombus;whiteSpace=wrap;html=1;" vertex="1" parent="1">
          <mxGeometry x="900" y="310" width="80" height="80" as="geometry" />
        </mxCell>
        <mxCell id="tqRGPNtFKxSDK7Un2gsf-37" style="edgeStyle=orthogonalEdgeStyle;rounded=0;orthogonalLoop=1;jettySize=auto;html=1;entryX=0;entryY=0.25;entryDx=0;entryDy=0;" edge="1" parent="1" source="tqRGPNtFKxSDK7Un2gsf-12" target="tqRGPNtFKxSDK7Un2gsf-28">
          <mxGeometry relative="1" as="geometry">
            <Array as="points">
              <mxPoint x="950" y="525" />
            </Array>
          </mxGeometry>
        </mxCell>
        <mxCell id="tqRGPNtFKxSDK7Un2gsf-38" style="edgeStyle=orthogonalEdgeStyle;rounded=0;orthogonalLoop=1;jettySize=auto;html=1;entryX=0;entryY=0.75;entryDx=0;entryDy=0;" edge="1" parent="1" source="tqRGPNtFKxSDK7Un2gsf-12" target="tqRGPNtFKxSDK7Un2gsf-29">
          <mxGeometry relative="1" as="geometry">
            <Array as="points">
              <mxPoint x="950" y="695" />
            </Array>
          </mxGeometry>
        </mxCell>
        <mxCell id="tqRGPNtFKxSDK7Un2gsf-12" value="Página de Encomendas" style="rhombus;whiteSpace=wrap;html=1;" vertex="1" parent="1">
          <mxGeometry x="910" y="560" width="80" height="80" as="geometry" />
        </mxCell>
        <mxCell id="tqRGPNtFKxSDK7Un2gsf-74" value="" style="edgeStyle=orthogonalEdgeStyle;rounded=0;orthogonalLoop=1;jettySize=auto;html=1;" edge="1" parent="1" source="tqRGPNtFKxSDK7Un2gsf-16" target="tqRGPNtFKxSDK7Un2gsf-73">
          <mxGeometry relative="1" as="geometry" />
        </mxCell>
        <mxCell id="tqRGPNtFKxSDK7Un2gsf-16" value="Adicionar Produtos" style="rounded=0;whiteSpace=wrap;html=1;" vertex="1" parent="1">
          <mxGeometry x="1090" y="20" width="120" height="60" as="geometry" />
        </mxCell>
        <mxCell id="tqRGPNtFKxSDK7Un2gsf-17" value="Editar Produtos" style="rounded=0;whiteSpace=wrap;html=1;" vertex="1" parent="1">
          <mxGeometry x="1090" y="140" width="120" height="60" as="geometry" />
        </mxCell>
        <mxCell id="tqRGPNtFKxSDK7Un2gsf-18" value="Acede a Relatórios Financeiros" style="rounded=0;whiteSpace=wrap;html=1;" vertex="1" parent="1">
          <mxGeometry x="1090" y="260" width="120" height="60" as="geometry" />
        </mxCell>
        <mxCell id="tqRGPNtFKxSDK7Un2gsf-27" value="Emitir aviso de falta de pagamento a um determinado Co-Produtor" style="rounded=0;whiteSpace=wrap;html=1;" vertex="1" parent="1">
          <mxGeometry x="1090" y="390" width="120" height="60" as="geometry" />
        </mxCell>
        <mxCell id="tqRGPNtFKxSDK7Un2gsf-40" value="" style="edgeStyle=orthogonalEdgeStyle;rounded=0;orthogonalLoop=1;jettySize=auto;html=1;" edge="1" parent="1" source="tqRGPNtFKxSDK7Un2gsf-28">
          <mxGeometry relative="1" as="geometry">
            <mxPoint x="1290" y="540" as="targetPoint" />
          </mxGeometry>
        </mxCell>
        <mxCell id="tqRGPNtFKxSDK7Un2gsf-28" value="Planear Entrega" style="rounded=0;whiteSpace=wrap;html=1;" vertex="1" parent="1">
          <mxGeometry x="1090" y="510" width="120" height="60" as="geometry" />
        </mxCell>
        <mxCell id="tqRGPNtFKxSDK7Un2gsf-29" value="Ver e gerir encomendas" style="rounded=0;whiteSpace=wrap;html=1;" vertex="1" parent="1">
          <mxGeometry x="1090" y="650" width="120" height="60" as="geometry" />
        </mxCell>
        <mxCell id="tqRGPNtFKxSDK7Un2gsf-43" value="" style="edgeStyle=orthogonalEdgeStyle;rounded=0;orthogonalLoop=1;jettySize=auto;html=1;" edge="1" parent="1" source="tqRGPNtFKxSDK7Un2gsf-41" target="tqRGPNtFKxSDK7Un2gsf-42">
          <mxGeometry relative="1" as="geometry" />
        </mxCell>
        <mxCell id="tqRGPNtFKxSDK7Un2gsf-45" style="edgeStyle=orthogonalEdgeStyle;rounded=0;orthogonalLoop=1;jettySize=auto;html=1;entryX=0;entryY=0.75;entryDx=0;entryDy=0;" edge="1" parent="1" source="tqRGPNtFKxSDK7Un2gsf-41" target="tqRGPNtFKxSDK7Un2gsf-44">
          <mxGeometry relative="1" as="geometry">
            <Array as="points">
              <mxPoint x="1330" y="685" />
            </Array>
          </mxGeometry>
        </mxCell>
        <mxCell id="tqRGPNtFKxSDK7Un2gsf-41" value="Página de Entregas" style="rhombus;whiteSpace=wrap;html=1;" vertex="1" parent="1">
          <mxGeometry x="1290" y="500" width="80" height="80" as="geometry" />
        </mxCell>
        <mxCell id="tqRGPNtFKxSDK7Un2gsf-42" value="Inserir Dados (Data, hora, produtos a entregar)&lt;span style=&quot;color: rgba(0, 0, 0, 0); font-family: monospace; font-size: 0px; text-align: start; text-wrap-mode: nowrap;&quot;&gt;%3CmxGraphModel%3E%3Croot%3E%3CmxCell%20id%3D%220%22%2F%3E%3CmxCell%20id%3D%221%22%20parent%3D%220%22%2F%3E%3CmxCell%20id%3D%222%22%20value%3D%22%22%20style%3D%22rounded%3D0%3BwhiteSpace%3Dwrap%3Bhtml%3D1%3B%22%20vertex%3D%221%22%20parent%3D%221%22%3E%3CmxGeometry%20x%3D%221090%22%20y%3D%22260%22%20width%3D%22120%22%20height%3D%2260%22%20as%3D%22geometry%22%2F%3E%3C%2FmxCell%3E%3C%2Froot%3E%3C%2FmxGraphModel%3E&lt;/span&gt;" style="whiteSpace=wrap;html=1;" vertex="1" parent="1">
          <mxGeometry x="1430" y="510" width="120" height="60" as="geometry" />
        </mxCell>
        <mxCell id="tqRGPNtFKxSDK7Un2gsf-44" value="Editar dados de entrega" style="whiteSpace=wrap;html=1;" vertex="1" parent="1">
          <mxGeometry x="1430" y="640" width="120" height="60" as="geometry" />
        </mxCell>
        <mxCell id="tqRGPNtFKxSDK7Un2gsf-53" value="FIM" style="ellipse;whiteSpace=wrap;html=1;" vertex="1" parent="1">
          <mxGeometry x="1900" y="330" width="120" height="80" as="geometry" />
        </mxCell>
        <mxCell id="tqRGPNtFKxSDK7Un2gsf-68" value="" style="edgeStyle=orthogonalEdgeStyle;rounded=0;orthogonalLoop=1;jettySize=auto;html=1;" edge="1" parent="1" source="tqRGPNtFKxSDK7Un2gsf-62" target="tqRGPNtFKxSDK7Un2gsf-67">
          <mxGeometry relative="1" as="geometry">
            <Array as="points">
              <mxPoint x="930" y="840" />
              <mxPoint x="930" y="980" />
            </Array>
          </mxGeometry>
        </mxCell>
        <mxCell id="tqRGPNtFKxSDK7Un2gsf-70" value="" style="edgeStyle=orthogonalEdgeStyle;rounded=0;orthogonalLoop=1;jettySize=auto;html=1;" edge="1" parent="1" source="tqRGPNtFKxSDK7Un2gsf-62" target="tqRGPNtFKxSDK7Un2gsf-69">
          <mxGeometry relative="1" as="geometry">
            <Array as="points">
              <mxPoint x="830" y="1070" />
            </Array>
          </mxGeometry>
        </mxCell>
        <mxCell id="tqRGPNtFKxSDK7Un2gsf-63" value="AMAPS" style="whiteSpace=wrap;html=1;" vertex="1" parent="1">
          <mxGeometry x="630" y="810" width="120" height="60" as="geometry" />
        </mxCell>
        <mxCell id="tqRGPNtFKxSDK7Un2gsf-67" value="Pedido de inscrição numa AMAP" style="whiteSpace=wrap;html=1;" vertex="1" parent="1">
          <mxGeometry x="970" y="940" width="120" height="60" as="geometry" />
        </mxCell>
        <mxCell id="tqRGPNtFKxSDK7Un2gsf-69" value="Desistir de uma AMAP" style="whiteSpace=wrap;html=1;" vertex="1" parent="1">
          <mxGeometry x="970" y="1040" width="120" height="60" as="geometry" />
        </mxCell>
        <mxCell id="tqRGPNtFKxSDK7Un2gsf-71" value="" style="edgeStyle=orthogonalEdgeStyle;rounded=0;orthogonalLoop=1;jettySize=auto;html=1;" edge="1" parent="1" source="tqRGPNtFKxSDK7Un2gsf-63" target="tqRGPNtFKxSDK7Un2gsf-62">
          <mxGeometry relative="1" as="geometry">
            <mxPoint x="890" y="840" as="sourcePoint" />
            <mxPoint x="970" y="840" as="targetPoint" />
          </mxGeometry>
        </mxCell>
        <mxCell id="tqRGPNtFKxSDK7Un2gsf-72" value="" style="edgeStyle=orthogonalEdgeStyle;rounded=0;orthogonalLoop=1;jettySize=auto;html=1;" edge="1" parent="1" source="tqRGPNtFKxSDK7Un2gsf-63" target="tqRGPNtFKxSDK7Un2gsf-62">
          <mxGeometry relative="1" as="geometry">
            <mxPoint x="750" y="840" as="sourcePoint" />
            <mxPoint x="970" y="1020" as="targetPoint" />
            <Array as="points" />
          </mxGeometry>
        </mxCell>
        <mxCell id="tqRGPNtFKxSDK7Un2gsf-76" value="" style="edgeStyle=orthogonalEdgeStyle;rounded=0;orthogonalLoop=1;jettySize=auto;html=1;" edge="1" parent="1" source="tqRGPNtFKxSDK7Un2gsf-62" target="tqRGPNtFKxSDK7Un2gsf-75">
          <mxGeometry relative="1" as="geometry">
            <Array as="points">
              <mxPoint x="830" y="780" />
            </Array>
          </mxGeometry>
        </mxCell>
        <mxCell id="tqRGPNtFKxSDK7Un2gsf-62" value="Lista AMAPS" style="rhombus;whiteSpace=wrap;html=1;" vertex="1" parent="1">
          <mxGeometry x="790" y="800" width="80" height="80" as="geometry" />
        </mxCell>
        <mxCell id="tqRGPNtFKxSDK7Un2gsf-73" value="Aguarda Confirmação da AMAP" style="whiteSpace=wrap;html=1;rounded=0;" vertex="1" parent="1">
          <mxGeometry x="1290" y="20" width="120" height="60" as="geometry" />
        </mxCell>
        <mxCell id="tqRGPNtFKxSDK7Un2gsf-75" value="Criar AMAP" style="whiteSpace=wrap;html=1;" vertex="1" parent="1">
          <mxGeometry x="945" y="750" width="120" height="60" as="geometry" />
        </mxCell>
      </root>
    </mxGraphModel>
  </diagram>
</mxfile>
